# AST/ASF file generated using VICON BodyLanguage
# -----------------------------------------------
:version 1.10
:name VICON
:units
  mass 1.0
  length 0.45
  angle deg
:documentation
   .ast/.asf automatically generated from VICON data using
   VICON BodyBuilder and BodyLanguage model FoxedUp or BRILLIANT.MOD
:root
   order TX TY TZ RX RY RZ
   axis XYZ
   position 0 0 0  
   orientation 0 0 0 
:bonedata
  begin
     id 1 
     name lhipjoint
     direction 0.537252 -0.787203 0.302774 
     length 2.29576 
     axis 0 0 0  XYZ
  end
  begin
     id 2 
     name lfemur
     direction 0.34202 -0.939693 0  
     length 7.31114  
     axis 0 0 20  XYZ
    dof rx ry rz
    limits (-160.0 20.0)
           (-70.0 70.0)
           (-60.0 70.0)
  end
  begin
     id 3 
     name ltibia
     direction 0.34202 -0.939693 0   
     length 8.36008   
     axis 0 0 20   XYZ
    dof rx
    limits (-10.0 170.0)
  end
  begin
     id 4 
     name lfoot
     direction 0.0969116 -0.266263 0.959016   
     length 2.16704   
     axis -90 7.62852e-016 20   XYZ
    dof rx rz
    limits (-45.0 90.0)
           (-70.0 20.0)
  end
  begin
     id 5 
     name ltoes
     direction 1.53563e-011 -4.21779e-011 1   
     length 1.08338   
     axis -90 7.62852e-016 20   XYZ
    dof rx
    limits (-90.0 20.0)
  end
  begin
     id 6 
     name rhipjoint
     direction -0.588228 -0.754791 0.290308   
     length 2.39434  
     axis 0 0 0  XYZ 
  end
  begin
     id 7 
     name rfemur
     direction -0.34202 -0.939693 0   
     length 7.45207   
     axis 0 0 -20   XYZ
    dof rx ry rz
    limits (-160.0 20.0)
           (-70.0 70.0)
           (-70.0 60.0)
  end
  begin
     id 8 
     name rtibia
     direction -0.34202 -0.939693 0   
     length 8.03565   
     axis 0 0 -20   XYZ
    dof rx
    limits (-10.0 170.0)
 end
 begin
     id 9 
     name rfoot
     direction -0.107009 -0.294004 0.949795   
     length 2.11509  
     axis -90 -7.62852e-016 -20   XYZ
    dof rx rz
    limits (-45.0 90.0)
           (-20.0 70.0)
  end
  begin
     id 10 
     name rtoes
     direction -1.53533e-011 -4.22004e-011 1   
     length 1.05493   
     axis -90 -7.62852e-016 -20   XYZ
    dof rx
    limits (-90.0 20.0)
  end
  begin
     id 11 
     name lowerback
     direction -0.0115208 0.997969 -0.0626515   
     length 2.03153   
     axis 0 0 0   XYZ
    dof rx ry rz
    limits (-20.0 45.0)
           (-30.0 30.0)
           (-30.0 30.0)
  end
  begin
     id 12 
     name upperback
     direction -0.00423475 0.999974 -0.00583614   
     length 2.03619   
     axis 0 0 0   XYZ
    dof rx ry rz
    limits (-20.0 45.0)
           (-30.0 30.0)
           (-30.0 30.0)
  end
  begin
     id 13 
     name thorax
     direction 0.00289429 0.999728 0.0231573   
     length 2.03921   
     axis 0 0 0   XYZ
    dof rx ry rz
    limits (-20.0 45.0)
           (-30.0 30.0)
           (-30.0 30.0)
  end
  begin
     id 14 
     name lowerneck
     direction 0.0188995 0.987777 0.154721   
     length 1.78836   
     axis 0 0 0   XYZ
    dof rx ry rz
    limits (-20.0 45.0)
           (-30.0 30.0)
           (-30.0 30.0)
  end
  begin
     id 15 
     name upperneck
     direction -0.00612612 0.992995 -0.118   
     length 1.81789   
     axis 0 0 0   XYZ
    dof rx ry rz
    limits (-20.0 45.0)
           (-30.0 30.0)
           (-30.0 30.0)
  end
  begin
     id 16
     name head
     direction -0.00420226 0.998397 -0.0564482  
     length 1.82234  
     axis 0 0 0   XYZ
    dof rx ry rz
    limits (-20.0 45.0)
           (-30.0 30.0)
           (-30.0 30.0)
  end
  begin
     id 17 
     name lclavicle
     direction 0.916488 0.396539 0.0529676  
     length 3.51732  
     axis 0 0 0   XYZ
    dof ry rz
    limits (-20.0 10.0)
           (0.0 20.0)
  end
  begin
     id 18 
     name lhumerus
     direction 1 -4.4896e-011 8.36962e-028   
     length 5.45077   
     axis 180 -30 -90   XYZ
    dof rx ry rz
    limits (-60.0 90.0)
           (-90.0 90.0)
           (-90.0 90.0)
  end
  begin
     id 19
     name lradius
     direction 1 -4.48962e-011 3.01407e-027   
     length 3.05488   
     axis 180 -30 -90   XYZ
    dof rx
    limits (-10.0 170.0)
  end
  begin
     id 20
     name lwrist
     direction 1 -4.49002e-011 4.72961e-027   
     length 1.52744   
     axis -2.72261e-015 90 90   XYZ
    dof ry
    limits (-180.0 0.0)
 end
  begin
     id 21 
     name lhand
     direction 1 -4.4899e-011 9.45681e-027   
     length 0.638818   
     axis -6.0311e-015 90 90   XYZ
    dof rx rz
    limits (-90.0 90.0)
           (-45.0 45.0)
  end
  begin
     id 22 
     name lfingers
     direction 1 -4.48871e-011 1.88632e-026   
     length 0.515032   
     axis -1.20625e-014 90 90   XYZ
    dof rx
    limits (0.0 90.0)
  end
  begin
     id 23
     name lthumb
     direction 0.707107 -6.34964e-011 0.707107   
     length 0.739485   
     axis -90 45 6.32835e-014   XYZ
    dof rx rz
    limits (-45.0 45.0)
           (-45.0 45.0)
  end
  begin
     id 24 
     name rclavicle
     direction -0.949427 0.303202 0.0815894   
     length 3.76167  
     axis 0 0 0   XYZ 
    dof ry rz
    limits (-10.0 20.0)
           (-20.0 0.0)
  end
  begin
     id 25 
     name rhumerus
     direction -1 -4.48971e-011 -6.43969e-018  
     length 4.88702   
     axis 180 30 90   XYZ
    dof rx ry rz
    limits (-90.0 60.0)
           (-90.0 90.0)
           (-90.0 90.0)
  end
  begin
     id 26 
     name rradius
     direction -1 -4.48987e-011 5.46662e-027   
     length 3.22603   
     axis 180 30 90   XYZ
    dof rx
    limits (-10.0 170.0)
  end
  begin
     id 27 
     name rwrist
     direction -1 -4.48956e-011 4.72476e-027   
     length 1.61302   
     axis -2.72261e-015 -90 -90   XYZ
    dof ry
    limits (-180.0 0.0)
  end
  begin
     id 28
     name rhand
     direction -1 -4.4889e-011 9.43571e-027   
     length 0.716293   
     axis -6.0311e-015 -90 -90   XYZ
    dof rx rz
    limits (-90.0 90.0)
           (-45.0 45.0)
  end
  begin
     id 29
     name rfingers
     direction -1 -4.48887e-011 1.88701e-026   
     length 0.577494   
     axis -1.20625e-014 -90 -90   XYZ
    dof rx
    limits (0.0 90.0)
  end
  begin
     id 30
     name rthumb
     direction -0.707107 -6.34825e-011 0.707107   
     length 0.829169   
     axis -90 -45 -6.32835e-014   XYZ
    dof rx rz
    limits (-45.0 45.0)
           (-45.0 45.0)
  end
:hierarchy
  begin
    root lhipjoint rhipjoint lowerback
    lhipjoint lfemur
    lfemur ltibia
    ltibia lfoot
    lfoot ltoes
    rhipjoint rfemur
    rfemur rtibia
    rtibia rfoot
    rfoot rtoes
    lowerback upperback
    upperback thorax
    thorax lowerneck lclavicle rclavicle
    lowerneck upperneck
    upperneck head
    lclavicle lhumerus
    lhumerus lradius
    lradius lwrist
    lwrist lhand lthumb
    lhand lfingers
    rclavicle rhumerus
    rhumerus rradius
    rradius rwrist
    rwrist rhand rthumb
    rhand rfingers
  end

#!OML:ASF F:\VICON\USERDATA\INSTALL\rory3\rory3.ASF
:FULLY-SPECIFIED
:DEGREES
262
root -0.406262 11.789 0.745033 212.534 59.6465 175.509
lowerback 50.114 4.422 -9.05645
upperback 6.8722 2.15812 -2.53635
thorax -12.7593 1.97731 0.207818
lowerneck -23.7235 3.879 2.65038
upperneck 8.40535 6.62877 -12.9943
head 7.00031 2.23156 -3.85393
rclavicle 6.7388e-014 -1.09829e-014
rhumerus 72.3598 10.4258 -70.0949
rradius 22.2383
rwrist -24.08
rhand -0.722935 2.7347
rfingers 7.12502
rthumb 24.8977 -25.6637
lclavicle 6.7388e-014 -1.09829e-014
lhumerus 52.8281 -6.94228 55.9513
lradius 38.3707
lwrist 70.3541
lhand -0.793488 31.044
lfingers 7.12502
lthumb 24.8301 59.4518
rfemur -125.232 -39.8773 50.0421
rtibia 121.45
rfoot -18.204 17.9351
rtoes -29.3317
lfemur -120.112 12.0884 -35.8211
ltibia 112.679
lfoot -12.9483 -29.5343
ltoes 3.94738
263
root -0.401115 11.8239 0.74579 212.959 59.5636 175.731
lowerback 50.3626 4.4744 -9.06812
upperback 6.75357 2.17492 -2.46411
thorax -12.9356 1.98379 0.268829
lowerneck -23.6006 3.8764 2.64275
upperneck 8.36291 6.64012 -13.0957
head 6.97308 2.23511 -3.88471
rclavicle -1.06549e-013 -5.09883e-014
rhumerus 72.5206 10.3813 -70.2114
rradius 22.2342
rwrist -23.9731
rhand -0.653836 2.59296
rfingers 7.12502
rthumb 24.964 -25.7963
lclavicle -1.06549e-013 -5.09883e-014
lhumerus 53.0286 -6.90039 56.1885
lradius 38.2398
lwrist 70.2464
lhand -0.758363 31.0448
lfingers 7.12502
lthumb 24.8638 59.448
rfemur -124.978 -39.5799 50.0406
rtibia 121.11
rfoot -18.2298 17.788
rtoes -29.172
lfemur -120.005 11.9914 -35.6065
ltibia 112.31
lfoot -13.0742 -29.4193
ltoes 4.17847
264
root -0.396059 11.8546 0.743592 213.193 59.5143 175.824
lowerback 50.6797 4.50364 -9.09982
upperback 6.66108 2.15387 -2.42462
thorax -13.0868 1.97885 0.317711
lowerneck -23.5934 3.89915 2.59335
upperneck 8.39234 6.69548 -13.1332
head 6.98688 2.25561 -3.88172
rclavicle 8.94531e-015 2.19657e-014
rhumerus 72.7557 10.3422 -70.3882
rradius 22.119
rwrist -23.7478
rhand -0.450554 2.60092
rfingers 7.12502
rthumb 25.1588 -25.7611
lclavicle 8.94531e-015 2.19657e-014
lhumerus 52.9645 -6.7438 56.1218
lradius 38.4218
lwrist 70.3041
lhand -0.756008 30.8556
lfingers 7.12502
lthumb 24.8661 59.2584
rfemur -124.757 -39.4159 49.9825
rtibia 120.817
rfoot -18.3195 17.7566
rtoes -29.4025
lfemur -119.871 11.9425 -35.5696
ltibia 112.007
lfoot -13.4169 -29.3534
ltoes 3.30913
265
root -0.391263 11.8815 0.741767 213.488 59.479 175.954
lowerback 50.8685 4.51437 -9.12101
upperback 6.59496 2.13074 -2.37768
thorax -13.1898 1.96979 0.378854
lowerneck -23.5536 3.90455 2.46028
upperneck 8.39807 6.75067 -13.1638
head 6.98495 2.27666 -3.86259
rclavicle 3.97569e-016 1.22973e-013
rhumerus 72.9534 10.3298 -70.8141
rradius 21.9099
rwrist -23.1481
rhand -0.402482 2.773
rfingers 7.12502
rthumb 25.2048 -25.5826
lclavicle 3.97569e-016 1.22973e-013
lhumerus 53.0528 -6.45938 56.4914
lradius 38.2583
lwrist 69.9041
lhand -0.648429 30.6935
lfingers 7.12502
lthumb 24.9691 59.082
rfemur -124.564 -39.1834 49.9498
rtibia 120.516
rfoot -18.4251 17.626
rtoes -29.7767
lfemur -119.824 11.9054 -35.517
ltibia 111.737
lfoot -13.5529 -29.3484
ltoes 3.08883
266
root -0.385447 11.9076 0.740529 213.728 59.4857 175.958
lowerback 51.0353 4.71968 -9.21581
upperback 6.49477 2.29508 -2.30948
thorax -13.3345 2.03979 0.407327
lowerneck -23.4465 3.79409 2.50869
upperneck 8.35108 6.59438 -13.2237
head 6.94402 2.20616 -3.91155
rclavicle 6.63941e-014 4.45775e-014
rhumerus 72.9887 9.96465 -71.0125
rradius 21.7464
rwrist -22.619
rhand -0.393372 2.9176
rfingers 7.12502
rthumb 25.2135 -25.4367
lclavicle 6.63941e-014 4.45775e-014
lhumerus 53.6905 -6.6431 57.4194
lradius 37.5928
lwrist 69.0222
lhand -0.502067 30.2263
lfingers 7.12502
lthumb 25.1094 58.5952
rfemur -124.452 -38.9263 49.8586
rtibia 120.242
rfoot -18.4456 17.4965
rtoes -29.7518
lfemur -119.834 11.8793 -35.6028
ltibia 111.458
lfoot -13.5845 -29.3518
ltoes 3.41869
267
root -0.379267 11.9317 0.738401 214.18 59.3966 176.185
lowerback 51.1252 4.68365 -9.16619
upperback 6.42198 2.25559 -2.27089
thorax -13.4343 2.01908 0.440388
lowerneck -23.4835 3.83678 2.39952
upperneck 8.39745 6.69221 -13.2304
head 6.97064 2.24512 -3.88282
rclavicle -1.90833e-014 6.58971e-014
rhumerus 73.1793 10.0591 -70.9405
rradius 21.7331
rwrist -22.4122
rhand -0.632557 2.86861
rfingers 7.12502
rthumb 24.9844 -25.5178
lclavicle -1.90833e-014 6.58971e-014
lhumerus 54.01 -6.42683 58.1986
lradius 37.0359
lwrist 68.2602
lhand -0.383777 29.9699
lfingers 7.12502
lthumb 25.2227 58.323
rfemur -124.327 -38.6701 49.9262
rtibia 119.975
rfoot -18.4991 17.3931
rtoes -29.5847
lfemur -119.921 11.8483 -35.5111
ltibia 111.225
lfoot -13.4446 -29.38
ltoes 3.98791
268
root -0.373746 11.9527 0.735391 214.453 59.3513 176.272
lowerback 51.261 4.63658 -9.17575
upperback 6.34767 2.16727 -2.2574
thorax -13.5363 1.98248 0.492652
lowerneck -23.5241 3.8714 2.29636
upperneck 8.48397 6.78218 -13.2423
head 7.01071 2.2775 -3.85818
rclavicle 2.5842e-015 -1.58779e-014
rhumerus 73.4117 10.1928 -70.7298
rradius 21.6933
rwrist -22.4618
rhand -0.648483 2.80133
rfingers 7.12502
rthumb 24.9691 -25.5872
lclavicle 2.5842e-015 -1.58779e-014
lhumerus 54.0004 -6.24219 58.0718
lradius 36.9266
lwrist 68.3959
lhand -0.277568 29.7843
lfingers 7.12502
lthumb 25.3245 58.123
rfemur -124.239 -38.5034 49.9352
rtibia 119.751
rfoot -18.5548 17.3087
rtoes -29.6254
lfemur -119.957 11.7899 -35.4703
ltibia 111.018
lfoot -13.3578 -29.3843
ltoes 4.22704
269
root -0.367455 11.9729 0.73177 214.671 59.3144 176.319
lowerback 51.3406 4.61928 -9.2793
upperback 6.28148 2.07574 -2.21576
thorax -13.6182 1.94651 0.62285
lowerneck -23.5465 3.92688 2.18931
upperneck 8.61499 6.89369 -13.2
head 7.06102 2.32139 -3.81243
rclavicle 6.10269e-014 2.33572e-015
rhumerus 73.6306 10.3307 -70.656
rradius 21.6031
rwrist -22.4724
rhand -0.630709 2.81757
rfingers 7.12502
rthumb 24.9861 -25.5686
lclavicle 6.10269e-014 2.33572e-015
lhumerus 53.6652 -6.03854 57.2962
lradius 37.2886
lwrist 69.1217
lhand -0.332162 30.161
lfingers 7.12502
lthumb 25.2722 58.507
rfemur -124.169 -38.3512 49.9238
rtibia 119.556
rfoot -18.6047 17.2124
rtoes -29.8977
lfemur -119.951 11.7098 -35.4028
ltibia 110.82
lfoot -13.3676 -29.304
ltoes 4.09362
270
root -0.361554 11.9964 0.728442 214.769 59.3266 176.323
lowerback 51.4805 4.64803 -9.40942
upperback 6.24196 2.02571 -2.19074
thorax -13.6757 1.93151 0.724276
lowerneck -23.4863 3.97841 2.12038
upperneck 8.5789 6.97522 -13.1873
head 7.04349 2.36232 -3.78564
rclavicle 1.70955e-014 3.93842e-014
rhumerus 73.8207 10.3353 -70.8526
rradius 21.4503
rwrist -22.2241
rhand -0.647225 2.70202
rfingers 7.12502
rthumb 24.9703 -25.6863
lclavicle 1.70955e-014 3.93842e-014
lhumerus 53.5427 -5.74957 57.3707
lradius 37.5113
lwrist 69.0136
lhand -0.0461383 31.3418
lfingers 7.12502
lthumb 25.5462 59.6489
rfemur -123.956 -38.2464 49.7958
rtibia 119.345
rfoot -18.6129 17.2007
rtoes -29.7093
lfemur -119.807 11.6998 -35.3872
ltibia 110.601
lfoot -13.4117 -29.3441
ltoes 4.37599
271
root -0.355912 12.0195 0.727007 214.917 59.3169 176.318
lowerback 51.5381 4.64877 -9.55435
upperback 6.19496 1.93968 -2.15286
thorax -13.7295 1.89985 0.867806
lowerneck -23.2699 4.04342 2.00786
upperneck 8.38215 7.06585 -13.1663
head 6.94717 2.42093 -3.74719
rclavicle 7.15625e-014 1.64743e-014
rhumerus 74.0102 10.4603 -70.9767
rradius 21.3545
rwrist -22.1344
rhand -0.630106 2.63132
rfingers 7.12502
rthumb 24.9867 -25.7548
lclavicle 7.15625e-014 1.64743e-014
lhumerus 53.5306 -5.43905 57.8862
lradius 37.4287
lwrist 68.5036
lhand -0.0297725 31.8527
lfingers 7.12502
lthumb 25.5619 60.1576
rfemur -123.797 -38.0664 49.6867
rtibia 119.137
rfoot -18.6908 17.071
rtoes -29.8832
lfemur -119.701 11.6252 -35.3449
ltibia 110.363
lfoot -13.4558 -29.3318
ltoes 4.42008
272
root -0.349717 12.0362 0.7248 215.162 59.2588 176.476
lowerback 51.5788 4.93818 -9.56532
upperback 6.18906 2.28776 -2.0223
thorax -13.7625 2.04073 0.849664
lowerneck -23.1145 3.92825 2.36487
upperneck 8.37671 6.85902 -13.4874
head 6.93191 2.3158 -3.94047
rclavicle -8.42847e-014 -2.09966e-014
rhumerus 73.9881 9.84942 -70.8851
rradius 21.184
rwrist -22.025
rhand -0.574182 2.7571
rfingers 7.12502
rthumb 25.0403 -25.6215
lclavicle -8.42847e-014 -2.09966e-014
lhumerus 54.1119 -5.85132 58.6485
lradius 36.9765
lwrist 67.9191
lhand -0.116908 32.1191
lfingers 7.12502
lthumb 25.4784 60.4359
rfemur -123.63 -37.9252 49.6855
rtibia 118.961
rfoot -18.7171 16.9735
rtoes -29.996
lfemur -119.647 11.594 -35.2049
ltibia 110.208
lfoot -13.4692 -29.3616
ltoes 4.29475
273
root -0.342958 12.0466 0.722368 215.191 59.3052 176.426
lowerback 51.7011 5.14183 -9.67656
upperback 6.14864 2.45865 -1.96121
thorax -13.8314 2.1152 0.877259
lowerneck -23.0471 3.877 2.5265
upperneck 8.39713 6.79412 -13.7571
head 6.94182 2.27211 -4.06553
rclavicle 2.94201e-014 8.17005e-014
rhumerus 73.9491 9.54118 -71.2183
rradius 20.9642
rwrist -21.5771
rhand -0.565335 3.21233
rfingers 7.12502
rthumb 25.0488 -25.1651
lclavicle 2.94201e-014 8.17005e-014
lhumerus 54.554 -6.01549 59.3275
lradius 36.4213
lwrist 67.1298
lhand -0.348198 32.1196
lfingers 7.12502
lthumb 25.2568 60.4678
rfemur -123.536 -37.8443 49.5467
rtibia 118.862
rfoot -18.7052 16.9798
rtoes -29.9568
lfemur -119.577 11.5614 -35.1902
ltibia 110.116
lfoot -13.6725 -29.3062
ltoes 3.94736
274
root -0.338763 12.0559 0.720411 215.441 59.2314 176.638
lowerback 51.8073 5.04056 -9.66065
upperback 6.1108 2.334 -1.9302
thorax -13.8858 2.06318 0.958717
lowerneck -23.0016 3.97203 2.36621
upperneck 8.39489 6.96548 -13.7462
head 6.94335 2.35038 -4.01237
rclavicle 2.32578e-014 -2.26366e-014
rhumerus 74.12 9.86652 -71.4371
rradius 20.833
rwrist -21.4009
rhand -0.696792 3.25995
rfingers 7.12502
rthumb 24.9228 -25.135
lclavicle 2.32578e-014 -2.26366e-014
lhumerus 54.524 -5.64934 59.4362
lradius 36.2334
lwrist 67.017
lhand -0.560297 32.2294
lfingers 7.12502
lthumb 25.0536 60.6062
rfemur -123.378 -37.725 49.5629
rtibia 118.748
rfoot -18.7752 16.8895
rtoes -29.7931
lfemur -119.556 11.5489 -35.0261
ltibia 110.044
lfoot -13.8549 -29.2382
ltoes 3.75149
